# xmcd
#
# Track frame offsets:
#	150
#	13836
#	29468
#	42071
#	59284
#	77679
#	95249
#	114314
#	132718
#	150214
#	161569
#	181827
#
# Disc length: 2706 seconds
# Revision: 0
# Processed by: cddbd v1.5.2PL0 Copyright (c) Steve Scherf et al.
# Submitted via: dBpowerAMP V12.0
#
DISCID=920a900c
DTITLE=Jane DeCuir - A Little Sympathy
DYEAR=2014
DGENRE=Blues
TTITLE0=Careless Alice
TTITLE1=Demon Beast of Love
TTITLE2=Knock Me a Kiss
TTITLE3=Sunny Day
TTITLE4=Up and Go
TTITLE5=A Little Sympathy
TTITLE6=Lines
TTITLE7=River
TTITLE8=Pretty
TTITLE9=Person to Person
TTITLE10=Thank You for Leavin'
TTITLE11=Waking Dream
EXTD=
EXTT0=
EXTT1=
EXTT2=
EXTT3=
EXTT4=
EXTT5=
EXTT6=
EXTT7=
EXTT8=
EXTT9=
EXTT10=
EXTT11=
PLAYORDER=
